{
	"asset":{
		"generator":"Khronos glTF Blender I/O v4.4.55",
		"version":"2.0"
	},
	"extensionsUsed":[
		"KHR_materials_unlit"
	],
	"scene":0,
	"scenes":[
		{
			"name":"Scene",
			"nodes":[
				0,
				1,
				2
			]
		}
	],
	"nodes":[
		{
			"mesh":0,
			"name":"SM_plane",
			"rotation":[
				0.7071068286895752,
				0,
				0,
				0.7071068286895752
			],
			"scale":[
				0.04369458928704262,
				0.04369458928704262,
				0.04369458928704262
			]
		},
		{
			"mesh":1,
			"name":"Character_geo_Geovanni",
			"rotation":[
				0.4171070158481598,
				-0.5709830522537231,
				0.4171069860458374,
				0.5709831714630127
			],
			"scale":[
				0.09999998658895493,
				0.09999997913837433,
				0.09999997913837433
			],
			"translation":[
				0.4233863949775696,
				1.2838647365570068,
				0.001999984961003065
			]
		},
		{
			"mesh":2,
			"name":"Plane",
			"scale":[
				27.061193466186523,
				27.061193466186523,
				27.061193466186523
			],
			"translation":[
				0,
				-1.1552965641021729,
				0
			]
		}
	],
	"materials":[
		{
			"doubleSided":true,
			"name":"Texture",
			"pbrMetallicRoughness":{
				"baseColorTexture":{
					"index":0
				},
				"metallicFactor":0,
				"roughnessFactor":0.5527864098548889
			}
		},
		{
			"doubleSided":true,
			"name":"lambert2.002",
			"pbrMetallicRoughness":{
				"baseColorTexture":{
					"index":1
				},
				"metallicFactor":0,
				"roughnessFactor":0.5527864098548889
			}
		},
		{
			"doubleSided":true,
			"extensions":{
				"KHR_materials_unlit":{}
			},
			"name":"Material.001",
			"pbrMetallicRoughness":{
				"baseColorTexture":{
					"index":2
				},
				"metallicFactor":0,
				"roughnessFactor":0.9
			}
		}
	],
	"meshes":[
		{
			"name":"Mesh",
			"primitives":[
				{
					"attributes":{
						"POSITION":0,
						"NORMAL":1,
						"TEXCOORD_0":2
					},
					"indices":3,
					"material":0
				}
			]
		},
		{
			"name":"Mesh.002",
			"primitives":[
				{
					"attributes":{
						"POSITION":4,
						"NORMAL":5,
						"TEXCOORD_0":6
					},
					"indices":7,
					"material":1
				}
			]
		},
		{
			"name":"Plane",
			"primitives":[
				{
					"attributes":{
						"POSITION":8,
						"NORMAL":9,
						"TEXCOORD_0":10
					},
					"indices":11,
					"material":2
				}
			]
		}
	],
	"textures":[
		{
			"sampler":0,
			"source":0
		},
		{
			"sampler":0,
			"source":1
		},
		{
			"sampler":0,
			"source":2
		}
	],
	"images":[
		{
			"mimeType":"image/jpeg",
			"name":"text_test",
			"uri":"text_test.jpg"
		},
		{
			"mimeType":"image/jpeg",
			"name":"Geovanni",
			"uri":"Geovanni.jpg"
		},
		{
			"mimeType":"image/jpeg",
			"name":"down-top-view-blue-sky-background-free-photo",
			"uri":"down-top-view-blue-sky-background-free-photo.jpg"
		}
	],
	"accessors":[
		{
			"bufferView":0,
			"componentType":5126,
			"count":4422,
			"max":[
				66.316650390625,
				57.568695068359375,
				-0.0045223236083984375
			],
			"min":[
				-44.899269104003906,
				-60.3775634765625,
				-50.94944763183594
			],
			"type":"VEC3"
		},
		{
			"bufferView":1,
			"componentType":5126,
			"count":4422,
			"type":"VEC3"
		},
		{
			"bufferView":2,
			"componentType":5126,
			"count":4422,
			"type":"VEC2"
		},
		{
			"bufferView":3,
			"componentType":5123,
			"count":12681,
			"type":"SCALAR"
		},
		{
			"bufferView":4,
			"componentType":5126,
			"count":583,
			"max":[
				5.487909317016602,
				2.76495361328125,
				3.564197540283203
			],
			"min":[
				-5.470741271972656,
				-1.7820024490356445,
				-6.1542158126831055
			],
			"type":"VEC3"
		},
		{
			"bufferView":5,
			"componentType":5126,
			"count":583,
			"type":"VEC3"
		},
		{
			"bufferView":6,
			"componentType":5126,
			"count":583,
			"type":"VEC2"
		},
		{
			"bufferView":7,
			"componentType":5123,
			"count":852,
			"type":"SCALAR"
		},
		{
			"bufferView":8,
			"componentType":5126,
			"count":4,
			"max":[
				1,
				0,
				1
			],
			"min":[
				-1,
				0,
				-1
			],
			"type":"VEC3"
		},
		{
			"bufferView":9,
			"componentType":5126,
			"count":4,
			"type":"VEC3"
		},
		{
			"bufferView":10,
			"componentType":5126,
			"count":4,
			"type":"VEC2"
		},
		{
			"bufferView":11,
			"componentType":5123,
			"count":6,
			"type":"SCALAR"
		}
	],
	"bufferViews":[
		{
			"buffer":0,
			"byteLength":53064,
			"byteOffset":0,
			"target":34962
		},
		{
			"buffer":0,
			"byteLength":53064,
			"byteOffset":53064,
			"target":34962
		},
		{
			"buffer":0,
			"byteLength":35376,
			"byteOffset":106128,
			"target":34962
		},
		{
			"buffer":0,
			"byteLength":25362,
			"byteOffset":141504,
			"target":34963
		},
		{
			"buffer":0,
			"byteLength":6996,
			"byteOffset":166868,
			"target":34962
		},
		{
			"buffer":0,
			"byteLength":6996,
			"byteOffset":173864,
			"target":34962
		},
		{
			"buffer":0,
			"byteLength":4664,
			"byteOffset":180860,
			"target":34962
		},
		{
			"buffer":0,
			"byteLength":1704,
			"byteOffset":185524,
			"target":34963
		},
		{
			"buffer":0,
			"byteLength":48,
			"byteOffset":187228,
			"target":34962
		},
		{
			"buffer":0,
			"byteLength":48,
			"byteOffset":187276,
			"target":34962
		},
		{
			"buffer":0,
			"byteLength":32,
			"byteOffset":187324,
			"target":34962
		},
		{
			"buffer":0,
			"byteLength":12,
			"byteOffset":187356,
			"target":34963
		}
	],
	"samplers":[
		{
			"magFilter":9729,
			"minFilter":9987
		}
	],
	"buffers":[
		{
			"byteLength":187368,
			"uri":"SigmaVanni.bin"
		}
	]
}
